<?xml version="1.0" standalone="no"?>
<!DOCTYPE svg PUBLIC "-//W3C//DTD SVG 20010904//EN"
 "http://www.w3.org/TR/2001/REC-SVG-20010904/DTD/svg10.dtd">
<svg version="1.0" xmlns="http://www.w3.org/2000/svg"
 width="170.000000pt" height="170.000000pt" viewBox="0 0 170.000000 170.000000"
 preserveAspectRatio="xMidYMid meet">
<metadata>
Created by potrace 1.13, written by Peter Selinger 2001-2015
</metadata>
<g transform="translate(0.000000,170.000000) scale(0.100000,-0.100000)"
fill="#000000" stroke="none">
<path d="M720 1688 c-159 -22 -339 -112 -459 -228 -111 -108 -181 -224 -227
-377 -24 -77 -27 -106 -28 -228 0 -166 14 -235 79 -371 128 -266 373 -441 668
-476 541 -64 1001 393 939 935 -54 482 -487 814 -972 745z m179 -189 c50 -18
75 -83 50 -131 -14 -26 -67 -48 -102 -41 -54 10 -84 83 -56 134 8 16 33 32 75
49 1 0 15 -5 33 -11z m-559 -182 c0 -2 -18 -52 -41 -112 -52 -138 -69 -218
-69 -330 0 -104 23 -209 74 -340 22 -59 31 -91 23 -94 -21 -7 -107 100 -146
182 -52 110 -65 169 -59 286 4 74 11 112 33 166 34 85 86 169 132 213 29 27
53 40 53 29z m657 -33 c29 -14 70 -45 92 -70 66 -75 72 -110 71 -367 l0 -225
50 -32 c148 -95 115 -181 -90 -240 -104 -30 -350 -39 -468 -17 -142 27 -212
75 -212 146 0 30 8 43 59 92 l60 56 3 239 3 239 30 54 c43 78 124 137 210 154
47 8 143 -6 192 -29z m454 -41 c91 -122 129 -229 129 -360 0 -104 -17 -172
-64 -268 -38 -75 -118 -175 -142 -175 -19 0 -19 -3 21 94 50 121 75 234 75
341 0 112 -17 191 -68 326 -21 57 -37 107 -35 111 7 13 47 -20 84 -69z m-150
-131 c79 -112 90 -244 32 -363 -31 -62 -77 -118 -88 -107 -3 3 6 45 20 93 34
118 34 222 0 339 -14 47 -25 89 -25 92 0 17 29 -9 61 -54z m-862 -74 c-33
-101 -33 -283 -1 -372 12 -33 22 -66 22 -74 0 -27 -56 35 -92 102 -31 57 -33
67 -33 156 0 83 3 102 27 150 29 58 85 127 95 116 3 -3 -5 -38 -18 -78z m541
-768 c0 -53 -57 -110 -110 -110 -53 0 -110 53 -110 102 l0 28 110 0 c104 0
110 -1 110 -20z"/>
</g>
</svg>
