<?xml version='1.0' encoding='iso-8859-1'?>
<!DOCTYPE svg PUBLIC '-//W3C//DTD SVG 1.1//EN' 'http://www.w3.org/Graphics/SVG/1.1/DTD/svg11.dtd'>
<svg version="1.1" xmlns="http://www.w3.org/2000/svg" viewBox="0 0 512 512" xmlns:xlink="http://www.w3.org/1999/xlink" enable-background="new 0 0 512 512">
  <path d="m448,48h-32-32v-16c0-17.674-14.326-32-32-32h-288c-17.673,0-32,14.326-32,32v96c0,17.673 14.327,32 32,32h288c17.674,0 32-14.327 32-32v-16h32v96h-208c-17.673,0-32,14.326-32,32v32 48c-17.673,0-32,14.326-32,32v128c0,17.673 14.327,32 32,32h64c17.674,0 32-14.327 32-32v-128c0-17.674-14.326-32-32-32v-48h176 32c17.674,0 32-14.327 32-32v-160c0-17.674-14.326-32-32-32zm-96,16h-288v-32h288v32z"/>
</svg>
