<?xml version='1.0' encoding='utf-8'?>
<!DOCTYPE svg PUBLIC '-//W3C//DTD SVG 1.1//EN' 'http://www.w3.org/Graphics/SVG/1.1/DTD/svg11.dtd'>
<svg version="1.1" xmlns="http://www.w3.org/2000/svg" viewBox="0 0 512 512" xmlns:xlink="http://www.w3.org/1999/xlink" enable-background="new 0 0 512 512">
  <g>
    <g>
      <path d="m252.6,177.1c-11.3,0-20.4,9.1-20.4,20.4 0,11.3 9.1,20.4 20.4,20.4 23.1,0 41.9,15.2 41.9,33.8 0,18.6-18.8,33.8-41.9,33.8h-221.2c-11.3,0-20.4,9.1-20.4,20.4 0,11.3 9.1,20.4 20.4,20.4h221.2c45.6,0 82.7-33.5 82.7-74.6 0-41.1-37.1-74.6-82.7-74.6z"/>
      <path d="m199.9,378.4h-166.9c-11.3,0-20.4,9.1-20.4,20.4 0,11.3 9.1,20.4 20.4,20.4h166.9c14.4,0 26.6,9.4 26.6,20.5 0,11.1-12.2,20.5-26.6,20.5-11.3,0-20.4,9.1-20.4,20.4 0,11.3 9.1,20.4 20.4,20.4 37.2,0 67.5-27.5 67.5-61.3 0-33.8-30.3-61.3-67.5-61.3z"/>
      <path d="m477.5,161.9c3.8-10.6 5.7-21.8 5.7-33 0-54.5-44.4-98.9-98.9-98.9-26.7,0-52,11-70.3,29.5-25.5-30.5-63.3-48.5-104.2-48.5-70.4,0-127.6,52-135.4,120.5-30.3,17.3-51.9,46.4-59.9,79.8-3.1,12.9 6.6,25.2 19.9,25.2 9.5,0 17.7-6.6 19.9-15.8 6.1-25.2 23.6-46.8 48-57.6 7.2-3.2 11.9-10.3 12.1-18.1 1.3-52.2 43.2-93.2 95.5-93.2 36.3,0 69,20.2 85.4,52.8 3.5,7 10.8,11.3 18.5,11.2 7.8-0.1 14.9-4.6 18.2-11.7 9.6-20.3 30.2-33.4 52.5-33.4 32,0 58.1,26.1 58.1,58.1 0,9.3-2.2,18.3-6.5,26.6-3.8,7.4-2.8,16.4 2.7,22.7 13.9,16.2 21.6,36.8 21.6,58 0,42-29.3,77.4-68.5,86.7-9.2,2.2-15.7,10.4-15.7,19.8 0,13.1 12.2,22.9 24.9,19.9 57.3-13.5 100-65.1 100-126.4-0.1-26.5-8.4-52.5-23.6-74.2z"/>
    </g>
  </g>
</svg>
