<?xml version='1.0' encoding='iso-8859-1'?>
<svg version="1.1" xmlns="http://www.w3.org/2000/svg" viewBox="0 0 42 42" xmlns:xlink="http://www.w3.org/1999/xlink" enable-background="new 0 0 42 42">
  <g>
    <g>
      <g>
        <path fill="#26261F" fill-rule="evenodd" d="m15.397,38.745l2.718,1.27 5.493-11.786-2.719-1.268-5.492,11.784zm9.997,0l2.718,1.27 2.116-4.534-2.718-1.267-2.116,4.531zm-16.618-7.25l2.719,1.268 2.111-4.534-2.718-1.268-2.112,4.534zm19.999,0l2.719,1.268 2.115-4.534-2.722-1.268-2.112,4.534zm5.73-20.512c-0.883,0-1.726,0.161-2.511,0.441-0.036-5.219-4.272-9.439-9.493-9.439-4.825,0-8.797,3.6-9.407,8.259-0.509-0.152-1.037-0.26-1.595-0.26-3.044,0-5.51,2.461-5.51,5.497 0,0.208 0.041,0.407 0.062,0.609-0.338-0.073-0.689-0.116-1.05-0.116-2.764-3.55271e-15-5.001,2.242-5.001,5.008 0,4.399 4.008,5.006 4.008,5.006h31.006v-0.028c3.902-0.26 6.986-3.504 6.986-7.475 0-4.143-3.353-7.502-7.495-7.502zm1.51,12.003c0,0-22.551,0-31.014,0-1.104,0-1.998-0.896-1.998-2.002 0-1.105 0.895-2.003 1.998-2.003 0.016,0 0.032,0.004 0.049,0.006 0,0 1.2,0.615 2.1,0.615 1.025,0 1.769-0.896 1.769-0.896 0.713-0.956 0.362-1.888 0.322-2.014 0,0-0.244-0.305-0.244-1.209 0-1.379 1.123-2.498 2.502-2.498 0.684,0 1.298,0.272 1.75,0.712v-0.021c0.289,0.236 0.65,0.383 1.054,0.383 0.927,0 1.681-0.753 1.681-1.683v-0.014c0,0 0.02-0.248 0.02-0.873 0-3.593 2.91-6.505 6.498-6.505 3.588,8.88178e-16 6.498,2.912 6.498,6.505 0,0.474-0.269,1.665-0.269,1.833 0,1.046 0.85,1.895 1.892,1.895 0.993,0 1.27-0.385 1.27-0.385 0.74-0.529 1.636-0.849 2.612-0.849 2.482,0 4.496,2.017 4.496,4.501-7.10543e-15,3.527-2.986,4.502-2.986,4.502zm-30.62,15.759l2.718,1.27 2.112-4.534-2.719-1.267-2.111,4.531z"/>
      </g>
    </g>
  </g>
</svg>
